<svg width="26" height="26" viewBox="0 0 26 26" fill="none" xmlns="http://www.w3.org/2000/svg">
<path d="M5.62207 14.1831L13.7267 22.2877C14.0575 22.6185 14.2163 23.0045 14.203 23.4455C14.1898 23.8866 14.0172 24.2725 13.6853 24.6033C13.3545 24.9066 12.9686 25.0653 12.5275 25.0797C12.0865 25.094 11.7005 24.9352 11.3697 24.6033L0.453299 13.6869C0.287898 13.5215 0.170464 13.3423 0.100996 13.1493C0.0315277 12.9564 -0.00210355 12.7496 0.000101786 12.5291C0.00230713 12.3086 0.0370408 12.1018 0.104304 11.9088C0.171567 11.7159 0.28845 11.5367 0.454953 11.3713L11.3714 0.454851C11.6746 0.151617 12.0539 0 12.5093 0C12.9647 0 13.3573 0.151617 13.687 0.454851C14.0178 0.785652 14.1832 1.17875 14.1832 1.63416C14.1832 2.08956 14.0178 2.48211 13.687 2.81181L5.62207 10.8751H24.1056C24.5742 10.8751 24.9673 11.0339 25.2849 11.3514C25.6024 11.669 25.7607 12.0616 25.7596 12.5291C25.7585 12.9966 25.5997 13.3897 25.2832 13.7084C24.9668 14.0271 24.5742 14.1853 24.1056 14.1831H5.62207Z" fill="white"/>
</svg>
