<svg width="24" height="15" viewBox="0 0 24 15" fill="none" xmlns="http://www.w3.org/2000/svg">
<path d="M12 0C17.1072 0 21.3504 2.7312 23.8784 6.776C23.9475 6.88678 23.9885 7.01279 23.9977 7.14304C24.0069 7.27328 23.984 7.4038 23.9312 7.5232L23.8784 7.624C21.3504 11.6688 17.1072 14.4 12 14.4C6.8928 14.4 2.6512 11.6688 0.121602 7.624C0.0421357 7.49685 0 7.34994 0 7.2C0 7.05006 0.0421357 6.90315 0.121602 6.776L0.364802 6.4C2.9168 2.5616 7.0528 0 12 0ZM12 1.6C7.6864 1.6 4.0528 3.808 1.76 7.2C4.0528 10.592 7.6864 12.8 12 12.8C16.3136 12.8 19.9456 10.592 22.24 7.2C19.944 3.808 16.312 1.6 12 1.6ZM12 4C12.8487 4 13.6626 4.33714 14.2627 4.93726C14.8629 5.53737 15.2 6.35131 15.2 7.2C15.2 8.04869 14.8629 8.86262 14.2627 9.46274C13.6626 10.0629 12.8487 10.4 12 10.4C11.1513 10.4 10.3374 10.0629 9.73726 9.46274C9.13714 8.86262 8.8 8.04869 8.8 7.2C8.8 6.35131 9.13714 5.53737 9.73726 4.93726C10.3374 4.33714 11.1513 4 12 4Z" fill="black"/>
</svg>
