<svg width="14" height="18" viewBox="0 0 14 18" fill="none" xmlns="http://www.w3.org/2000/svg">
<path d="M1.75 18C1.26875 18 0.856916 17.8323 0.5145 17.4969C0.172083 17.1614 0.000583333 16.7577 0 16.2857V7.71429C0 7.24286 0.1715 6.83943 0.5145 6.504C0.8575 6.16857 1.26933 6.00057 1.75 6H2.625V4.28571C2.625 3.1 3.05171 2.08943 3.90512 1.254C4.75854 0.418572 5.79017 0.000572014 7 5.8508e-07C8.20983 -0.000570843 9.24175 0.417429 10.0957 1.254C10.9497 2.09057 11.3762 3.10114 11.375 4.28571V6H12.25C12.7312 6 13.1434 6.168 13.4864 6.504C13.8294 6.84 14.0006 7.24343 14 7.71429V16.2857C14 16.7571 13.8288 17.1609 13.4864 17.4969C13.144 17.8329 12.7318 18.0006 12.25 18H1.75ZM8.23637 13.2111C8.57879 12.8751 8.75 12.4714 8.75 12C8.75 11.5286 8.57879 11.1251 8.23637 10.7897C7.89396 10.4543 7.48183 10.2863 7 10.2857C6.51817 10.2851 6.10633 10.4531 5.7645 10.7897C5.42267 11.1263 5.25117 11.5297 5.25 12C5.24883 12.4703 5.42033 12.874 5.7645 13.2111C6.10867 13.5483 6.5205 13.716 7 13.7143C7.4795 13.7126 7.89162 13.5449 8.23637 13.2111ZM4.375 6H9.625V4.28571C9.625 3.57143 9.36979 2.96429 8.85937 2.46429C8.34896 1.96429 7.72917 1.71429 7 1.71429C6.27083 1.71429 5.65104 1.96429 5.14062 2.46429C4.63021 2.96429 4.375 3.57143 4.375 4.28571V6Z" fill="#C7CBD2"/>
</svg>
