<svg width="119" height="88" viewBox="0 0 119 88" fill="none" xmlns="http://www.w3.org/2000/svg">
<path d="M8.87586 0C3.97565 0 0 3.69531 0 8.25V63.25C0 67.8047 3.97565 71.5 8.87586 71.5H11.8345C11.8345 80.6094 19.7858 88 29.5862 88C39.3866 88 47.3379 80.6094 47.3379 71.5H71.0069C71.0069 80.6094 78.9582 88 88.7586 88C98.5591 88 106.51 80.6094 106.51 71.5H112.428C115.701 71.5 118.345 69.0422 118.345 66C118.345 62.9578 115.701 60.5 112.428 60.5V49.5V44V40.7859C112.428 37.8641 111.189 35.0625 108.97 33L94.6759 19.7141C92.4569 17.6516 89.4428 16.5 86.2993 16.5H76.9241V8.25C76.9241 3.69531 72.9485 0 68.0483 0H8.87586ZM76.9241 27.5H86.2993L100.593 40.7859V44H76.9241V27.5ZM20.7103 71.5C20.7103 69.312 21.6455 67.2135 23.31 65.6664C24.9746 64.1192 27.2322 63.25 29.5862 63.25C31.9402 63.25 34.1978 64.1192 35.8624 65.6664C37.5269 67.2135 38.4621 69.312 38.4621 71.5C38.4621 73.688 37.5269 75.7865 35.8624 77.3336C34.1978 78.8808 31.9402 79.75 29.5862 79.75C27.2322 79.75 24.9746 78.8808 23.31 77.3336C21.6455 75.7865 20.7103 73.688 20.7103 71.5ZM88.7586 63.25C91.1126 63.25 93.3703 64.1192 95.0348 65.6664C96.6993 67.2135 97.6345 69.312 97.6345 71.5C97.6345 73.688 96.6993 75.7865 95.0348 77.3336C93.3703 78.8808 91.1126 79.75 88.7586 79.75C86.4046 79.75 84.147 78.8808 82.4824 77.3336C80.8179 75.7865 79.8828 73.688 79.8828 71.5C79.8828 69.312 80.8179 67.2135 82.4824 65.6664C84.147 64.1192 86.4046 63.25 88.7586 63.25Z" fill="#16A637"/>
</svg>
