<svg width="16" height="16" viewBox="0 0 16 16" fill="none" xmlns="http://www.w3.org/2000/svg">
<path fill-rule="evenodd" clip-rule="evenodd" d="M4.375 3.5C4.375 2.57174 4.74375 1.6815 5.40013 1.02513C6.0565 0.368749 6.94674 0 7.875 0C8.80326 0 9.6935 0.368749 10.3499 1.02513C11.0063 1.6815 11.375 2.57174 11.375 3.5C11.375 4.42826 11.0063 5.3185 10.3499 5.97487C9.6935 6.63125 8.80326 7 7.875 7C6.94674 7 6.0565 6.63125 5.40013 5.97487C4.74375 5.3185 4.375 4.42826 4.375 3.5ZM4.375 8.75C3.21468 8.75 2.10188 9.21094 1.28141 10.0314C0.460936 10.8519 0 11.9647 0 13.125C0 13.8212 0.276562 14.4889 0.768845 14.9812C1.26113 15.4734 1.92881 15.75 2.625 15.75H13.125C13.8212 15.75 14.4889 15.4734 14.9812 14.9812C15.4734 14.4889 15.75 13.8212 15.75 13.125C15.75 11.9647 15.2891 10.8519 14.4686 10.0314C13.6481 9.21094 12.5353 8.75 11.375 8.75H4.375Z" fill="#233329"/>
</svg>
